<svg width="131" height="21" viewBox="0 0 131 21" fill="none" xmlns="http://www.w3.org/2000/svg">
<path d="M15.7292 14.4292C15.7292 15.4305 15.5336 16.3164 15.1425 17.087C14.7515 17.853 14.2221 18.4851 13.5591 18.9835C12.7722 19.5787 11.9137 20.0032 10.9742 20.257C10.0346 20.5108 8.84229 20.6354 7.39719 20.6354H0V0.457275H6.17625C7.69766 0.457275 8.83753 0.512647 9.59108 0.618774C10.3494 0.724902 11.0696 0.955614 11.7611 1.29707C12.5242 1.68928 13.0822 2.183 13.4304 2.7967C13.7738 3.40578 13.9502 4.13483 13.9502 4.98385C13.9502 5.94362 13.6974 6.75572 13.1919 7.42941C12.6864 8.10309 12.0139 8.64295 11.1745 9.04901V9.15975C12.5862 9.44122 13.6974 10.0365 14.5082 10.9547C15.3238 11.8683 15.7292 13.0265 15.7292 14.4292ZM11.0648 5.33454C11.0648 4.85004 10.9789 4.43476 10.812 4.10253C10.6451 3.77031 10.3732 3.49807 10.0012 3.29042C9.56246 3.04587 9.0283 2.89821 8.40352 2.83823C7.77874 2.77824 7.00134 2.75056 6.0761 2.75056H2.77574V8.57835H6.36226C7.23027 8.57835 7.92182 8.53682 8.4369 8.44915C8.94722 8.36148 9.42415 8.18614 9.8677 7.9139C10.3065 7.64627 10.6165 7.29559 10.7977 6.86185C10.9742 6.42811 11.0648 5.92055 11.0648 5.33454ZM12.8437 14.5353C12.8437 13.7232 12.7197 13.0772 12.467 12.5974C12.2142 12.1175 11.7563 11.7114 11.0934 11.3792C10.6451 11.1531 10.1014 11.0054 9.46231 10.9408C8.82322 10.8716 8.04582 10.8393 7.13011 10.8393H2.77574V18.3467H6.4481C7.66428 18.3467 8.65629 18.2867 9.43369 18.1621C10.2063 18.0422 10.8454 17.8161 11.3366 17.4931C11.8613 17.1378 12.2428 16.7363 12.486 16.2841C12.7245 15.832 12.8437 15.2506 12.8437 14.5353Z" fill="#47093E"/>
<path d="M33.4091 20.6354H19.6687V0.457275H33.4091V2.84284H22.4397V8.37533H33.4091V10.7609H22.4397V18.2544H33.4091V20.6354Z" fill="#47093E"/>
<path d="M53.7645 20.6354H50.9888V10.7563H40.5821V20.6354H37.8064V0.457275H40.5821V8.37071H50.9888V0.457275H53.7645V20.6354Z" fill="#47093E"/>
<path d="M75.8128 20.6354H72.8559L70.8098 15.0106H61.7911L59.745 20.6354H56.9312L64.5239 0.457275H68.2201L75.8128 20.6354ZM69.9561 12.7081L66.3028 2.80131L62.6352 12.7081H69.9561Z" fill="#47093E"/>
<path d="M92.6198 6.55731C92.6198 7.45248 92.4577 8.27843 92.1381 9.04439C91.8138 9.80574 91.3655 10.4702 90.7884 11.0285C90.0683 11.7253 89.2193 12.2467 88.2368 12.5927C87.2544 12.9434 86.0191 13.1142 84.5263 13.1142H81.7506V20.6354H78.9749V0.457275H84.636C85.8904 0.457275 86.9491 0.558789 87.8171 0.761816C88.6852 0.964843 89.4578 1.28323 90.1303 1.71697C90.922 2.23376 91.5372 2.87514 91.9712 3.64111C92.4004 4.40707 92.6198 5.38068 92.6198 6.55731ZM89.7344 6.62191C89.7344 5.92516 89.6056 5.32069 89.3576 4.8039C89.1049 4.29172 88.7233 3.86721 88.2082 3.54421C87.7599 3.26274 87.2496 3.06433 86.6725 2.93974C86.1002 2.81977 85.3705 2.75979 84.4929 2.75979H81.7458V10.8255H84.0875C85.2083 10.8255 86.1193 10.7286 86.8204 10.5348C87.5214 10.341 88.089 10.0318 88.5278 9.60733C88.9665 9.17359 89.2766 8.71678 89.4578 8.2369C89.6438 7.75702 89.7344 7.21715 89.7344 6.62191Z" fill="#47093E"/>
<path d="M111.039 0.457251L103.112 17.4377C102.793 18.1252 102.421 18.6882 101.987 19.1311C101.553 19.5741 101.081 19.9155 100.58 20.1601C100.094 20.3862 99.6261 20.5385 99.173 20.6169C98.72 20.6907 98.2859 20.7323 97.8615 20.7323C97.4895 20.7323 97.0364 20.7138 96.5022 20.6769C95.9681 20.64 95.6294 20.6169 95.4768 20.6123V18.1021H95.6724C95.8155 18.1206 96.0491 18.1483 96.3735 18.1898C96.6978 18.2313 97.0745 18.2498 97.4942 18.2498C97.6802 18.2498 97.9426 18.236 98.2812 18.2083C98.615 18.1806 98.9155 18.116 99.1778 18.0191C99.4783 17.9083 99.774 17.7376 100.065 17.5023C100.361 17.267 100.609 16.9255 100.814 16.4733L101.319 15.4028L93.5596 0.452637H96.6262L102.721 12.3528L108.182 0.452637H111.039V0.457251Z" fill="#47093E"/>
<path d="M130.035 19.1727C129.52 19.3895 129.058 19.5926 128.643 19.7817C128.228 19.9709 127.684 20.1693 127.011 20.377C126.439 20.5477 125.824 20.6954 125.156 20.82C124.489 20.9399 123.754 21.0045 122.953 21.0045C121.441 21.0045 120.063 20.7969 118.827 20.3862C117.592 19.9755 116.514 19.3295 115.599 18.4528C114.702 17.5946 114.001 16.5056 113.5 15.1813C112.994 13.857 112.742 12.3205 112.742 10.5671C112.742 8.90596 112.985 7.42018 113.471 6.10973C113.958 4.79928 114.654 3.69186 115.575 2.78747C116.462 1.91076 117.535 1.2417 118.789 0.780272C120.048 0.318847 121.441 0.0881348 122.972 0.0881348C124.093 0.0881348 125.209 0.221948 126.325 0.480346C127.441 0.743358 128.681 1.20478 130.045 1.86462V5.04845H129.835C128.686 4.11637 127.546 3.44269 126.415 3.01818C125.285 2.59367 124.074 2.38142 122.791 2.38142C121.732 2.38142 120.783 2.54753 119.939 2.87514C119.094 3.20737 118.341 3.71955 117.678 4.41168C117.034 5.08998 116.533 5.94823 116.171 6.98182C115.808 8.01541 115.632 9.2105 115.632 10.5671C115.632 11.9883 115.827 13.2064 116.228 14.2262C116.624 15.2506 117.139 16.0811 117.764 16.7225C118.417 17.3916 119.18 17.8853 120.053 18.2083C120.926 18.5313 121.846 18.6882 122.819 18.6882C124.155 18.6882 125.404 18.4667 126.573 18.0237C127.741 17.5807 128.833 16.9163 129.849 16.0304H130.045V19.1727H130.035Z" fill="#47093E"/>
</svg>
